<svg xmlns="http://www.w3.org/2000/svg" style="display: none;">
  
  <symbol id="html5" viewBox="0 0 512 512">
    <path fill="currentColor" d="M108.4 0h341l-31.1 349.1L256 512 93.7 349.1 62.6 0zm253.3 313.2l20.1-225.5H129.8l1.4 15.1h153.5l-9 101.5H135.5l1.4 15.1H271l-14 157.1-100.9 27.6-101-27.6-6.6-73.8h-15.1l7.4 82.3 115.3 31.6 115.2-31.6 17.3-194.2z"/>
  </symbol>

  <symbol id="scss" viewBox="0 0 512 512">
    <path fill="currentColor" d="M256 0c141.4 0 256 114.6 256 256S397.4 512 256 512 0 397.4 0 256 114.6 0 256 0zm-7.6 142.2c-54.6 0-98.8 38.3-98.8 85.5 0 28.5 16.3 53.6 41.2 69.8L112.1 412h146c26.8 0 48.6-21.8 48.6-48.6 0-21.7-14.3-39.9-33.8-46.3.3-1 .6-1.9.9-2.9l-22.1-4.8 2.2-10 22.1 4.8.9-4.1-22.1-4.8 2.2-10 22.1 4.8c1.3-6.1 2-12.4 2-18.7 0-47.2-44.2-85.5-98.8-85.5zm113.8 141.7c-2.3 0-4.6-.2-6.8-.6L288 288c1.1-1.3 2.1-2.7 3.1-4.1l11.4 2.5.6-2.8c-1.1-1.1-2-2.3-3-3.6l11.4 2.5 1.7-7.6c-4-4.8-8.5-9.1-13.6-12.7L311 262.2 312.7 254.6c-13.7-10.4-30.8-16.7-49.3-16.7-47.3 0-85.6 33.2-85.6 74.1.3 62 82.3 58 82.3 110.1 0 13.9-9.1 25.1-20.3 25.1-11.2 0-20.3-11.2-20.3-25.1H181.7c0 30.2 19.8 54.7 44.3 54.7 24.5 0 44.3-24.5 44.3-54.7-.3-62-82.3-58-82.3-110.1 0-13.9 9.1-25.1 20.3-25.1 11.2 0 20.3 11.2 20.3 25.1z"/>
  </symbol>

  <symbol id="css" viewBox="0 0 512 512">
    <path fill="currentColor" d="M108.4 0h341l-31.1 349.1L256 512 93.7 349.1 62.6 0zm31 342.3l110.3 30.2 110.3-30.2 28.3-317.3H121.2l2.3 25.7h196l-7 78.3H128l2.3 25.7h184l-7 78.3-77 21.1-77-21.1-4.7-52.6H123.6l5.8 64.9z"/>
  </symbol>

  <symbol id="js" viewBox="0 0 512 512">
    <path fill="currentColor" d="M0 0h512v512H0z"/>
    <path fill="#fff" d="M294.1 329.1c11.7 21 21.6 42.5 21.6 60.1 0 16.2-7.8 27.9-25.2 27.9-12.6 0-21.6-11.7-27.9-23.4l-18.9 11.7c8.1 18.9 23.4 39.6 46.8 39.6 36 0 54-21.6 54-52.2.1-17-7.2-39.5-23.4-65.7l-28-50.4c-9.9-18-18-35.1-18-49.5 0-14.4 7.2-23.4 20.7-23.4 10.8 0 17.1 9.9 23.4 21.6l18.9-11.7c-9-17.1-20.7-36.9-43.2-36.9-32.4 0-49.5 19.8-49.5 47.7 0 16.2 8.1 36 21.6 61.2zm111.6-126.9c-23.4 0-38.7 13.5-38.7 37.8 0 20.7 10.8 31.5 27 38.7l16.2 7.2c16.2 6.3 23.4 12.6 23.4 23.4 0 10.8-9 19.8-21.6 19.8-13.5 0-21.6-11.7-26.1-23.4l-18.9 11.7c7.2 17.1 20.7 39.6 45 39.6 30.6 0 51.3-17.1 51.3-43.2 0-21.6-11.7-33.3-27.9-40.5l-16.2-7.2c-13.5-6.3-21.6-11.7-21.6-21.6 0-10.8 9-18 20.7-18 10.8 0 17.1 8.1 22.5 19.8l18.9-11.7c-9-17.1-20.7-35.1-41.4-35.1z"/>
  </symbol>

  <symbol id="gulp" viewBox="0 0 512 512">
    <path fill="currentColor" d="M128 32C57.3 32 0 89.3 0 160c0 106.3 128 288 128 288s128-181.7 128-288c0-70.7-57.3-128-128-128zm0 192c-35.3 0-64-28.7-64-64s28.7-64 64-64 64 28.7 64 64-28.7 64-64 64zm320-128c35.3 0 64 28.7 64 64 0 72.3-91.8 190.4-138.8 243.2l-37.2-41.9C369.3 318.4 384 280.9 384 256c0-35.3 28.7-64 64-64zm0 256c-17.7 0-32-14.3-32-32s14.3-32 32-32 32 14.3 32 32-14.3 32-32 32zm0 64c-17.7 0-32-14.3-32-32s14.3-32 32-32 32 14.3 32 32-14.3 32-32 32zm-128-64c-17.7 0-32-14.3-32-32s14.3-32 32-32 32 14.3 32 32-14.3 32-32 32zm0 64c-17.7 0-32-14.3-32-32s14.3-32 32-32 32 14.3 32 32-14.3 32-32 32z"/>
  </symbol>

  <symbol id="wp" viewBox="0 0 512 512">
    <path fill="currentColor" d="M256 0c141.4 0 256 114.6 256 256S397.4 512 256 512 0 397.4 0 256 114.6 0 256 0zm-7.6 142.2c-54.6 0-98.8 38.3-98.8 85.5 0 28.5 16.3 53.6 41.2 69.8L112.1 412h146c26.8 0 48.6-21.8 48.6-48.6 0-21.7-14.3-39.9-33.8-46.3.3-1 .6-1.9.9-2.9l-22.1-4.8 2.2-10 22.1 4.8.9-4.1-22.1-4.8 2.2-10 22.1 4.8c1.3-6.1 2-12.4 2-18.7 0-47.2-44.2-85.5-98.8-85.5zm113.8 141.7c-2.3 0-4.6-.2-6.8-.6L288 288c1.1-1.3 2.1-2.7 3.1-4.1l11.4 2.5.6-2.8c-1.1-1.1-2-2.3-3-3.6l11.4 2.5 1.7-7.6c-4-4.8-8.5-9.1-13.6-12.7L311 262.2 312.7 254.6c-13.7-10.4-30.8-16.7-49.3-16.7-47.3 0-85.6 33.2-85.6 74.1.3 62 82.3 58 82.3 110.1 0 13.9-9.1 25.1-20.3 25.1-11.2 0-20.3-11.2-20.3-25.1H181.7c0 30.2 19.8 54.7 44.3 54.7 24.5 0 44.3-24.5 44.3-54.7-.3-62-82.3-58-82.3-110.1 0-13.9 9.1-25.1 20.3-25.1 11.2 0 20.3 11.2 20.3 25.1z"/>
  </symbol>

  <symbol id="bootstrap" viewBox="0 0 512 512">
    <path fill="currentColor" d="M0 64C0 28.7 28.7 0 64 0H448c35.3 0 64 28.7 64 64V448c0 35.3-28.7 64-64 64H64c-35.3 0-64-28.7-64-64V64zm320 256c35.3 0 64-28.7 64-64s-28.7-64-64-64-64 28.7-64 64 28.7 64 64 64z"/>
  </symbol>

  <symbol id="git" viewBox="0 0 512 512">
    <path fill="currentColor" d="M0 0h512v512H0z"/>
    <path fill="#fff" d="M256 0c141.4 0 256 114.6 256 256S397.4 512 256 512 0 397.4 0 256 114.6 0 256 0zm0 160c-17.7 0-32 14.3-32 32 0 3.2.5 6.2 1.4 9.1l-60 60c-2.9-.9-5.9-1.4-9.1-1.4-17.7 0-32 14.3-32 32s14.3 32 32 32 32-14.3 32-32c0-3.2-.5-6.2-1.4-9.1l51.1-51.1V320c-17.7 0-32 14.3-32 32s14.3 32 32 32 32-14.3 32-32c0-3.2-.5-6.2-1.4-9.1l51.1-51.1c.9.5 1.9.9 2.9 1.2V320c-17.7 0-32 14.3-32 32s14.3 32 32 32 32-14.3 32-32c0-3.2-.5-6.2-1.4-9.1l60-60c2.9.9 5.9 1.4 9.1 1.4 17.7 0 32-14.3 32-32s-14.3-32-32-32zm0-160c17.7 0 32 14.3 32 32s-14.3 32-32 32-32-14.3-32-32 14.3-32 32-32zm-128 160c17.7 0 32 14.3 32 32s-14.3 32-32 32-32-14.3-32-32 14.3-32 32-32z"/>
  </symbol>

  <symbol id="figma" viewBox="0 0 512 512">
    <path fill="currentColor" d="M160 0c70.7 0 128 57.3 128 128v256c0 70.7-57.3 128-128 128s-128-57.3-128-128V128C32 57.3 89.3 0 160 0zm0 128c35.3 0 64-28.7 64-64s-28.7-64-64-64-64 28.7-64 64v64c35.3 0 64-28.7 64-64zm0 256c35.3 0 64-28.7 64-64s-28.7-64-64-64-64 28.7-64 64v64c35.3 0 64-28.7 64-64z"/>
  </symbol>

  <symbol id="zeplin" viewBox="0 0 512 512">
    <path fill="currentColor" d="M128 32C57.3 32 0 89.3 0 160v192c0 70.7 57.3 128 128 128h256c70.7 0 128-57.3 128-128V160c0-70.7-57.3-128-128-128H128z"/>
  </symbol>

</svg>
